<?xml version="1.0" encoding="utf-8"?>
<!-- Generator: Adobe Illustrator 21.1.0, SVG Export Plug-In . SVG Version: 6.00 Build 0)  -->
<svg version="1.1" id="Logo" xmlns="http://www.w3.org/2000/svg" xmlns:xlink="http://www.w3.org/1999/xlink" x="0px" y="0px"
	 viewBox="0 0 146.4 34.4" style="enable-background:new 0 0 146.4 34.4;" xml:space="preserve">
<style type="text/css">
	.st0{fill:#FFFFFF;}
</style>
<g>
	<path class="st0" d="M43.2,13.9c0-1.9,0-3.7,0-5.5c0-2.4,0-4.7,0.1-6.9c0.7,0,1.2,0,1.5,0c4,0,5.8,1.7,5.8,6.1c0,4.3-2,6.4-5.8,6.4
		C44.3,14.1,43.8,14,43.2,13.9z M39.7,15.3c0.5,0,1,0,1.6,0c1,0,2.2,0.1,3.7,0.1c6,0,9-2.6,9-7.9c0-2.5-0.9-4.5-2.5-5.8
		c-1.5-1.1-3.2-1.4-5.7-1.4c-1.6,0-3.1,0.1-4.5,0.1c-0.6,0-1.1,0-1.7-0.1c0.2,1.9,0.2,4,0.2,6.3c0,0.4,0,0.8,0,1.2c0,0.7,0,1.3,0,2
		C39.9,11.8,39.9,13.6,39.7,15.3z"/>
	<path class="st0" d="M58.4,9c0-0.1,0-0.1,0-0.2c0-2.2,0.8-3.3,2-3.3c1.1,0,1.7,1,1.7,3c0,0.1,0,0.3,0,0.5H58.4z M58.4,10.1h6.7
		c0-0.2,0-0.5,0-0.7c0-3.1-1.7-4.9-4.7-4.9c-3.3,0-5.3,2.3-5.3,5.4c0,3.5,2,5.7,5.5,5.7c1.5,0,2.7-0.4,3.6-1l0.5-1.2l-0.2-0.2
		c-0.9,0.7-1.8,1-2.8,1C59.8,14.2,58.4,12.6,58.4,10.1z"/>
	<path class="st0" d="M67.1,12.3c0.5,1.4,1.5,2.3,2.8,2.3c1.1,0,1.6-0.6,1.6-1.5c0-1-0.9-1.3-2.6-2c-1.8-0.7-2.7-1.5-2.7-3
		c0-2.1,1.5-3.6,4-3.6c1.1,0,2.2,0.3,3.2,0.9c-0.3,0.6-0.5,1.3-0.6,2.1h-0.2c-0.6-1.3-1.5-2-2.6-2c-0.9,0-1.6,0.6-1.6,1.4
		c0,0.9,0.6,1.1,1.9,1.6c2.3,0.9,3.6,1.4,3.6,3.4c0,2.2-1.7,3.7-4.2,3.7c-1.3,0-2.4-0.2-3.3-0.9c0.1-0.4,0.2-1.3,0.3-2.4H67.1z"/>
	<path class="st0" d="M77.4,4.9c0.5,0,1.1,0,1.6-0.1c-0.1,1.1-0.1,2-0.1,2.8c0,5.4,0.1,7.5,0.1,8c0,3.2-1.5,4.7-5.1,4.8l-0.2-0.7
		c2.3-0.1,2.4-1.8,2.4-5.7c0-5.4-0.1-8.1-0.2-9.4C76.4,4.9,76.9,4.9,77.4,4.9z M77.6,0.1c1,0,1.8,0.8,1.8,1.8c0,1-0.8,1.8-1.8,1.8
		c-1,0-1.8-0.8-1.8-1.8C75.8,0.9,76.5,0.1,77.6,0.1z"/>
	<path class="st0" d="M86.6,9.5V12c0,1.4-0.6,2-1.5,2c-0.9,0-1.4-0.6-1.4-1.9C83.7,10.7,84.6,9.9,86.6,9.5z M86.7,13.9
		c0.2,1.1,1,1.6,2,1.6c0.7,0,1.5-0.2,2.3-0.5v-0.6c0,0,0,0-0.1,0c-1.3,0-1.5-0.5-1.5-2.1c0-0.1,0-0.3,0-0.4l0.1-3.8c0,0,0-0.1,0-0.1
		c0-2.3-1.5-3.5-4.1-3.5c-1.4,0-2.6,0.5-3.9,1.7c0.2,0.5,0.4,1,0.5,1.4c0.7-1.1,1.5-1.7,2.5-1.7c1.3,0,2.1,0.8,2.1,2.2
		c0,0.1,0,0.2,0,0.4C85.6,9,84.4,9.2,83,9.7c-1.6,0.5-2.3,1.4-2.3,2.8c0,1.9,1.1,3.1,3,3.1C85,15.5,86,14.9,86.7,13.9z"/>
	<path class="st0" d="M92.1,10c0-2,0-3.8-0.2-5.2c0.5,0.1,1,0.1,1.5,0.1c0.5,0,1,0,1.5-0.1c-0.1,1.1-0.1,2.1-0.1,2.8H95
		c0.5-2,1.7-3.1,3.4-3.1c0,0,0.1,0,0.1,0c-0.1,0.5-0.1,1.1-0.1,1.6c0,0.6,0,1.1,0.1,1.6c-0.5-0.2-1-0.3-1.4-0.3
		c-1.5,0-2.1,1-2.1,3.1c0,1.9,0.1,3.5,0.2,4.8c-0.5-0.1-1.1-0.1-1.6-0.1c-0.6,0-1.1,0-1.6,0.1C92.1,13.7,92.1,12,92.1,10z"/>
	<path class="st0" d="M104.7,5.9c1.4,0,2,1.4,2,4.2c0,2.7-0.8,4.1-2.1,4.1c-1.5,0-2.1-1.3-2.1-3.9C102.4,7.3,103.1,5.9,104.7,5.9z
		 M106.7,15.3c0.5-0.1,1-0.1,1.6-0.1c0.5,0,1,0,1.5,0.1c-0.1-2-0.2-4.8-0.2-8.2c0-3.1,0-4.6,0.2-7c-0.6,0.1-1.1,0.1-1.6,0.1
		c-0.5,0-1.1,0-1.6-0.1c0.1,1.5,0.1,1.6,0.1,3.1v2.7c-0.8-1-1.7-1.4-2.9-1.4c-2.8,0-4.5,2.1-4.5,5.6c0,3.6,1.5,5.4,4.3,5.4
		c1.5,0,2.5-0.5,3.2-1.8C106.7,14.3,106.7,14.8,106.7,15.3z"/>
	<path class="st0" d="M112.2,10c0-1.9-0.1-3.6-0.2-5.3c0.5,0.1,1.1,0.1,1.6,0.1c0.6,0,1.1,0,1.6-0.1c-0.1,1.6-0.2,3.4-0.2,5.3
		c0,1.7,0.1,3.4,0.2,5.2c-0.5-0.1-1.1-0.1-1.6-0.1c-0.5,0-1.1,0-1.6,0.1C112.2,13.5,112.2,11.8,112.2,10z M113.8,0
		c0.9,0,1.6,0.7,1.6,1.7c0,0.9-0.7,1.7-1.7,1.7c-0.9,0-1.6-0.7-1.6-1.7C112.1,0.7,112.9,0,113.8,0z"/>
	<path class="st0" d="M117.9,10c0-1.9-0.1-3.6-0.2-5.3c0.5,0.1,1,0.1,1.5,0.1c0.5,0,1,0,1.5-0.1v1.5c0.9-1.2,2-1.8,3.4-1.8
		c1.1,0,2,0.4,2.6,1.1c0.7,0.8,0.7,1.8,0.7,3.2c0,0.6,0,1.5,0,2.7c0,1.3,0,2.5,0.2,3.7c-0.5-0.1-1.1-0.1-1.6-0.1
		c-0.5,0-1.1,0-1.6,0.1c0.1-1.2,0.2-2.9,0.2-5.1c0-2.6-0.2-3.8-1.8-3.8c-1.4,0-1.9,1.2-1.9,3.6c0,1.2,0,3,0.2,5.3
		c-0.5-0.1-1.1-0.1-1.6-0.1c-0.6,0-1.1,0-1.6,0.1C117.8,13.5,117.9,11.8,117.9,10z"/>
	<path class="st0" d="M130.1,12.3c0.5,1.4,1.5,2.3,2.8,2.3c1.1,0,1.6-0.6,1.6-1.5c0-1-0.9-1.3-2.6-2c-1.8-0.7-2.7-1.5-2.7-3
		c0-2.1,1.5-3.6,4-3.6c1.1,0,2.2,0.3,3.2,0.9c-0.3,0.6-0.5,1.3-0.6,2.1h-0.2c-0.6-1.3-1.5-2-2.6-2c-0.9,0-1.6,0.6-1.6,1.4
		c0,0.9,0.6,1.1,1.9,1.6c2.3,0.9,3.6,1.4,3.6,3.4c0,2.2-1.7,3.7-4.2,3.7c-1.3,0-2.3-0.2-3.3-0.9c0.1-0.4,0.2-1.3,0.3-2.4H130.1z"/>
</g>
<path class="st0" d="M0,0.2v31.3h31.3V0.2H0z M26.8,22.3l-11.2,6.5L4.5,22.3V9.4L15.7,3l11.2,6.5V22.3z"/>
<path class="st0" d="M5.5,10v11.8l10.2,5.9l10.2-5.9V10L15.7,4.1L5.5,10z M12.7,10.7l1.6-0.9l1,0.6l-0.6,0.3v1.8l0.6,0.3l-1,0.6
	l-1.6-0.9V10.7z M19,17.6l-1,0.6l-3.4-2v-2.1l1.6-0.9l1,0.6l-0.6,0.3v2.1L19,17.6z M15.1,17.4l-2.4,1.4v-0.9l1.6-0.9L15.1,17.4z
	 M8.7,15.3l3.6-2.1l1,0.6l-2.6,1.5v2.1l0.6,0.3l-1,0.6l-1.6-0.9V15.3z M10.3,19.2l1.6-0.9l0,0.9H10.3z M12.7,19.7l3.2-1.8V19
	l-3.2,1.8V19.7z M15.9,19.9v0.9l-1.6,0.9l-0.8-0.5L15.9,19.9z M18.6,10.2v2.3l4,2.3v2.8l-2.8,1.6h-1.2v2.1l-2.4,1.4h-2l2.4-1.4v-3
	l1.4,0.8l2.6-1.5v-2.8l-4-2.3v-2.3l-2.4-1.4h2L18.6,10.2z"/>
<g>
	<path class="st0" d="M47.6,30.6c-0.1,0.2-0.1,0.4-0.1,0.6c-0.8,0.4-1.7,0.6-2.9,0.6c-0.8,0-1.5-0.1-2.2-0.3c-0.6-0.2-1.2-0.5-1.6-1
		c-0.4-0.4-0.8-0.9-1-1.5c-0.2-0.6-0.3-1.2-0.3-1.8c0-1,0.2-1.8,0.5-2.5c0.3-0.7,0.7-1.2,1.2-1.6c0.5-0.4,1.1-0.7,1.8-0.9
		c0.7-0.2,1.4-0.3,2.1-0.3c0.2,0,0.5,0,0.8,0.1c0.3,0,0.5,0.1,0.8,0.1c0.3,0.1,0.5,0.1,0.7,0.2c0.2,0.1,0.4,0.2,0.6,0.3
		c-0.1,0.2-0.2,0.5-0.2,0.7c-0.1,0.2-0.1,0.5-0.1,0.7h-0.2c-0.4-0.4-0.7-0.8-1.1-1c-0.4-0.2-0.8-0.3-1.3-0.3c-0.4,0-0.7,0.1-1.1,0.3
		c-0.4,0.2-0.7,0.4-1,0.8c-0.3,0.3-0.6,0.8-0.7,1.3c-0.2,0.5-0.3,1.2-0.3,1.9c0,0.7,0.1,1.3,0.3,1.8c0.2,0.5,0.4,0.9,0.8,1.2
		s0.7,0.6,1.1,0.7c0.4,0.1,0.8,0.2,1.2,0.2c0.2,0,0.5,0,0.7-0.1c0.2-0.1,0.5-0.1,0.7-0.2c0.2-0.1,0.4-0.2,0.6-0.3
		c0.2-0.1,0.4-0.3,0.5-0.4l0.2,0.1C47.7,30.2,47.7,30.4,47.6,30.6z"/>
	<path class="st0" d="M50.3,24.9c0.5-0.2,0.9-0.3,1.3-0.3c0.4,0,0.7,0,1,0.1c0.3,0.1,0.6,0.2,0.8,0.4c0.2,0.2,0.4,0.4,0.5,0.7
		c0.1,0.3,0.2,0.6,0.2,1c0,0.6,0,1.1,0,1.7c0,0.5,0,1,0,1.5c0,0.2,0,0.4,0,0.5c0,0.1,0.1,0.2,0.1,0.3c0.1,0.1,0.2,0.1,0.3,0.1
		c0.1,0,0.2,0,0.4,0v0.3c-0.3,0.1-0.5,0.2-0.7,0.3c-0.2,0.1-0.4,0.1-0.6,0.1c-0.3,0-0.6-0.1-0.8-0.3c-0.2-0.2-0.4-0.4-0.5-0.7
		c-0.2,0.3-0.5,0.5-0.7,0.7c-0.3,0.2-0.6,0.3-1.1,0.3c-0.4,0-0.7,0-0.9-0.1c-0.3-0.1-0.5-0.2-0.6-0.4c-0.2-0.2-0.3-0.4-0.4-0.6
		c-0.1-0.2-0.1-0.4-0.1-0.7c0-0.3,0-0.6,0.1-0.8c0.1-0.2,0.2-0.4,0.4-0.6c0.2-0.2,0.4-0.3,0.6-0.4c0.3-0.1,0.5-0.2,0.9-0.3
		c0.4-0.1,0.7-0.2,0.9-0.2c0.2-0.1,0.4-0.1,0.5-0.2c0.1-0.1,0.2-0.1,0.2-0.2c0-0.1,0-0.2,0-0.3c0-0.3-0.1-0.6-0.4-0.9
		c-0.2-0.2-0.6-0.4-1-0.4c-0.2,0-0.3,0-0.5,0.1c-0.2,0-0.3,0.1-0.5,0.2c-0.2,0.1-0.3,0.2-0.4,0.2c-0.1,0.1-0.2,0.2-0.3,0.3h-0.1
		l-0.2-0.8C49.5,25.3,49.9,25.1,50.3,24.9z M52.4,28.5c0-0.2,0-0.4,0-0.6c-0.2,0.1-0.4,0.2-0.6,0.3c-0.2,0.1-0.4,0.2-0.6,0.3
		c-0.2,0.1-0.3,0.3-0.4,0.4c-0.1,0.2-0.2,0.5-0.2,0.8c0,0.3,0.1,0.6,0.2,0.8c0.1,0.2,0.3,0.3,0.6,0.3c0.3,0,0.6-0.1,0.7-0.3
		c0.2-0.2,0.3-0.6,0.3-1C52.4,29,52.4,28.7,52.4,28.5z"/>
	<path class="st0" d="M56.3,21.4c0.2-0.2,0.5-0.3,0.8-0.3c0.3,0,0.6,0.1,0.8,0.3c0.2,0.2,0.3,0.5,0.3,0.8c0,0.3-0.1,0.6-0.3,0.8
		c-0.2,0.2-0.5,0.3-0.8,0.3c-0.3,0-0.6-0.1-0.8-0.3c-0.2-0.2-0.3-0.5-0.3-0.8C56,21.9,56.1,21.6,56.3,21.4z M56.2,26.3
		c0-0.5,0-1-0.1-1.5c0.1,0,0.3,0,0.5,0c0.2,0,0.4,0,0.6,0c0.4,0,0.8,0,1-0.1c0,0.5-0.1,1-0.1,1.5c0,0.5,0,1,0,1.6v0.6
		c0,0.6,0,1.1,0,1.6c0,0.5,0,1,0.1,1.5c-0.1,0-0.3,0-0.5,0c-0.2,0-0.4,0-0.6,0c-0.2,0-0.4,0-0.6,0c-0.2,0-0.3,0-0.5,0
		c0-0.5,0.1-1,0.1-1.5c0-0.5,0-1,0-1.6v-0.6C56.2,27.4,56.2,26.8,56.2,26.3z"/>
	<path class="st0" d="M60.2,30.3c0.1,0.1,0.2,0.3,0.3,0.4c0.1,0.1,0.3,0.2,0.5,0.3c0.2,0.1,0.4,0.1,0.6,0.1c0.3,0,0.6-0.1,0.8-0.3
		c0.2-0.2,0.3-0.3,0.3-0.5c0-0.2-0.1-0.4-0.2-0.5c-0.2-0.1-0.4-0.2-0.6-0.4c-0.2-0.1-0.5-0.2-0.8-0.3c-0.3-0.1-0.5-0.3-0.8-0.4
		c-0.2-0.2-0.4-0.4-0.6-0.6c-0.2-0.3-0.2-0.6-0.2-1c0-0.4,0.1-0.7,0.2-1c0.1-0.3,0.3-0.5,0.6-0.7s0.5-0.3,0.8-0.4
		c0.3-0.1,0.6-0.1,0.9-0.1c0.4,0,0.7,0.1,1,0.2c0.3,0.1,0.6,0.3,0.9,0.5c-0.1,0.2-0.2,0.4-0.2,0.6c-0.1,0.2-0.1,0.4-0.1,0.6h-0.4
		c0-0.1-0.1-0.2-0.1-0.4c-0.1-0.1-0.2-0.3-0.3-0.4c-0.1-0.1-0.2-0.2-0.4-0.3c-0.2-0.1-0.3-0.1-0.6-0.1c-0.3,0-0.5,0.1-0.7,0.2
		c-0.2,0.1-0.3,0.3-0.3,0.6c0,0.2,0.1,0.4,0.2,0.5c0.2,0.1,0.4,0.3,0.6,0.4c0.2,0.1,0.5,0.2,0.8,0.3c0.3,0.1,0.6,0.2,0.8,0.4
		c0.2,0.2,0.4,0.4,0.6,0.6c0.2,0.3,0.2,0.6,0.2,1c0,0.4-0.1,0.8-0.2,1.1c-0.1,0.3-0.3,0.5-0.6,0.7c-0.3,0.2-0.5,0.3-0.9,0.4
		c-0.3,0.1-0.7,0.1-1,0.1c-0.4,0-0.8-0.1-1.1-0.2c-0.3-0.1-0.6-0.2-0.8-0.4c0.1-0.4,0.2-0.9,0.2-1.3H60C60,30,60.1,30.1,60.2,30.3z"
		/>
	<path class="st0" d="M65.5,30.3c0.1,0.1,0.2,0.3,0.3,0.4c0.1,0.1,0.3,0.2,0.5,0.3C66.5,31,66.7,31,67,31c0.3,0,0.6-0.1,0.8-0.3
		c0.2-0.2,0.3-0.3,0.3-0.5c0-0.2-0.1-0.4-0.2-0.5c-0.2-0.1-0.4-0.2-0.6-0.4c-0.2-0.1-0.5-0.2-0.8-0.3c-0.3-0.1-0.5-0.3-0.8-0.4
		c-0.2-0.2-0.4-0.4-0.6-0.6c-0.2-0.3-0.2-0.6-0.2-1c0-0.4,0.1-0.7,0.2-1c0.1-0.3,0.3-0.5,0.6-0.7c0.2-0.2,0.5-0.3,0.8-0.4
		c0.3-0.1,0.6-0.1,0.9-0.1c0.4,0,0.7,0.1,1,0.2c0.3,0.1,0.6,0.3,0.9,0.5c-0.1,0.2-0.2,0.4-0.2,0.6c-0.1,0.2-0.1,0.4-0.1,0.6h-0.4
		c0-0.1-0.1-0.2-0.1-0.4c-0.1-0.1-0.2-0.3-0.3-0.4c-0.1-0.1-0.2-0.2-0.4-0.3c-0.2-0.1-0.3-0.1-0.6-0.1c-0.3,0-0.5,0.1-0.7,0.2
		c-0.2,0.1-0.3,0.3-0.3,0.6c0,0.2,0.1,0.4,0.2,0.5c0.2,0.1,0.4,0.3,0.6,0.4c0.2,0.1,0.5,0.2,0.8,0.3c0.3,0.1,0.6,0.2,0.8,0.4
		c0.2,0.2,0.4,0.4,0.6,0.6c0.2,0.3,0.2,0.6,0.2,1c0,0.4-0.1,0.8-0.2,1.1c-0.1,0.3-0.3,0.5-0.6,0.7c-0.3,0.2-0.5,0.3-0.9,0.4
		c-0.3,0.1-0.7,0.1-1,0.1c-0.4,0-0.8-0.1-1.1-0.2c-0.3-0.1-0.6-0.2-0.8-0.4c0.1-0.4,0.2-0.9,0.2-1.3h0.3
		C65.4,30,65.5,30.1,65.5,30.3z"/>
	<path class="st0" d="M72.4,29.3c0.1,0.3,0.2,0.6,0.3,0.8c0.2,0.2,0.3,0.4,0.6,0.6c0.2,0.1,0.5,0.2,0.8,0.2c0.6,0,1.2-0.2,1.7-0.6
		l0.2,0.1l-0.3,0.8c-0.2,0.2-0.5,0.3-0.8,0.4c-0.3,0.1-0.8,0.2-1.3,0.2c-0.5,0-0.9-0.1-1.3-0.2c-0.4-0.1-0.8-0.3-1.1-0.6
		c-0.3-0.3-0.6-0.7-0.7-1.1c-0.2-0.4-0.3-1-0.3-1.6c0-0.6,0.1-1.1,0.2-1.6c0.2-0.4,0.4-0.8,0.7-1.1c0.3-0.3,0.6-0.5,1-0.7
		c0.4-0.1,0.8-0.2,1.3-0.2c0.9,0,1.6,0.3,2.1,0.8c0.5,0.5,0.7,1.3,0.7,2.3v0.3c0,0.1,0,0.1,0,0.2h-4C72.3,28.6,72.3,29,72.4,29.3z
		 M74.1,25.9c-0.2-0.4-0.4-0.6-0.8-0.6c-0.2,0-0.4,0.1-0.5,0.2c-0.1,0.1-0.3,0.3-0.3,0.5c-0.1,0.2-0.1,0.5-0.2,0.7
		c0,0.3-0.1,0.5-0.1,0.8h2.2C74.4,26.9,74.3,26.3,74.1,25.9z"/>
	<path class="st0" d="M87.4,29.3c0,0.8,0,1.5,0.1,2.3c-0.1,0-0.3,0-0.5,0c-0.2,0-0.4,0-0.6,0c-0.2,0-0.4,0-0.5,0c-0.2,0-0.3,0-0.4,0
		c0,0,0-0.1,0-0.2c0-0.1,0-0.2,0-0.3c0-0.1,0-0.3,0-0.4c0-0.1,0-0.2,0-0.2l0,0c-0.2,0.4-0.4,0.7-0.7,1c-0.3,0.2-0.7,0.3-1.3,0.3
		c-0.5,0-0.9-0.1-1.2-0.3c-0.3-0.2-0.6-0.4-0.8-0.8c-0.2-0.3-0.4-0.7-0.5-1.1c-0.1-0.4-0.2-0.9-0.2-1.4c0-0.5,0.1-1,0.2-1.4
		c0.1-0.4,0.3-0.8,0.6-1.1c0.2-0.3,0.5-0.6,0.9-0.7c0.3-0.2,0.7-0.3,1.1-0.3c0.4,0,0.8,0.1,1.1,0.3c0.3,0.2,0.6,0.4,0.7,0.7h0
		c0-0.8,0-1.6,0-2.4c0-0.7,0-1.5-0.1-2.3c0.1,0,0.3,0,0.5,0c0.2,0,0.4,0,0.6,0c0.2,0,0.4,0,0.6,0c0.2,0,0.3,0,0.5,0
		c0,0.8-0.1,1.6-0.1,2.3c0,0.8,0,1.6,0,2.5v0.9C87.4,27.7,87.4,28.5,87.4,29.3z M83.1,29.6c0.1,0.3,0.2,0.6,0.3,0.8
		c0.1,0.2,0.2,0.3,0.4,0.4c0.1,0.1,0.3,0.1,0.5,0.1c0.4,0,0.7-0.2,0.9-0.7c0.2-0.4,0.4-1.2,0.4-2.2c0-0.9-0.1-1.5-0.3-1.9
		c-0.2-0.4-0.5-0.6-0.9-0.6c-0.1,0-0.3,0-0.4,0.1c-0.1,0.1-0.3,0.2-0.4,0.4c-0.1,0.2-0.2,0.5-0.3,0.8C83,27.4,83,27.8,83,28.4
		C83,28.8,83,29.2,83.1,29.6z"/>
	<path class="st0" d="M90.8,29.3c0.1,0.3,0.2,0.6,0.3,0.8c0.2,0.2,0.3,0.4,0.6,0.6c0.2,0.1,0.5,0.2,0.8,0.2c0.6,0,1.2-0.2,1.7-0.6
		l0.2,0.1l-0.3,0.8c-0.2,0.2-0.5,0.3-0.8,0.4c-0.3,0.1-0.8,0.2-1.3,0.2c-0.5,0-0.9-0.1-1.3-0.2c-0.4-0.1-0.8-0.3-1.1-0.6
		c-0.3-0.3-0.6-0.7-0.7-1.1s-0.3-1-0.3-1.6c0-0.6,0.1-1.1,0.2-1.6c0.2-0.4,0.4-0.8,0.7-1.1c0.3-0.3,0.6-0.5,1-0.7
		c0.4-0.1,0.8-0.2,1.3-0.2c0.9,0,1.6,0.3,2.1,0.8c0.5,0.5,0.7,1.3,0.7,2.3v0.3c0,0.1,0,0.1,0,0.2h-4C90.7,28.6,90.7,29,90.8,29.3z
		 M92.6,25.9c-0.2-0.4-0.4-0.6-0.8-0.6c-0.2,0-0.4,0.1-0.5,0.2c-0.1,0.1-0.3,0.3-0.3,0.5c-0.1,0.2-0.1,0.5-0.2,0.7
		c0,0.3-0.1,0.5-0.1,0.8h2.2C92.8,26.9,92.7,26.3,92.6,25.9z"/>
	<path class="st0" d="M106.8,22.1c0.6,0.2,1.2,0.5,1.7,0.9c0.5,0.4,0.8,0.9,1.1,1.6c0.3,0.6,0.4,1.4,0.4,2.2c0,0.5-0.1,1.1-0.2,1.6
		c-0.2,0.5-0.4,0.9-0.7,1.4c-0.3,0.4-0.7,0.8-1.1,1.1c-0.4,0.3-0.9,0.6-1.5,0.8c0.3,0.2,0.7,0.4,1,0.6c0.3,0.2,0.7,0.4,1,0.6
		c0.3,0.2,0.6,0.4,0.9,0.5c0.3,0.2,0.5,0.3,0.7,0.4c-0.3,0-0.6,0.1-0.9,0.3c-0.3,0.1-0.6,0.3-1,0.5c-0.3-0.3-0.6-0.5-0.9-0.7
		c-0.3-0.2-0.5-0.4-0.8-0.6c-0.3-0.2-0.5-0.4-0.9-0.6c-0.3-0.2-0.7-0.5-1.2-0.8c-0.7,0-1.3-0.1-2-0.3c-0.6-0.2-1.2-0.5-1.6-0.9
		c-0.5-0.4-0.8-0.9-1.1-1.6c-0.3-0.6-0.4-1.4-0.4-2.2c0-0.7,0.1-1.3,0.4-1.9c0.3-0.6,0.6-1.1,1.1-1.6c0.5-0.5,1-0.8,1.7-1.1
		c0.7-0.3,1.4-0.4,2.2-0.4C105.5,21.8,106.2,21.9,106.8,22.1z M107.5,24.9c-0.1-0.5-0.4-0.9-0.6-1.2c-0.3-0.3-0.6-0.6-1-0.8
		c-0.4-0.2-0.8-0.3-1.2-0.3c-0.5,0-0.9,0.1-1.3,0.3c-0.4,0.2-0.7,0.5-1,0.9c-0.3,0.4-0.5,0.9-0.6,1.4c-0.1,0.5-0.2,1.1-0.2,1.7
		c0,0.7,0.1,1.4,0.2,1.9c0.2,0.5,0.4,0.9,0.6,1.2c0.3,0.3,0.6,0.5,0.9,0.7c0.4,0.1,0.7,0.2,1.1,0.2c0.4,0,0.8-0.1,1.2-0.3
		c0.4-0.2,0.7-0.4,1-0.8c0.3-0.4,0.5-0.8,0.7-1.4c0.2-0.6,0.3-1.2,0.3-2C107.7,25.9,107.7,25.3,107.5,24.9z"/>
	<path class="st0" d="M115.5,30.6c-0.3,0.4-0.6,0.7-0.9,0.9c-0.3,0.2-0.7,0.3-1.2,0.3c-0.7,0-1.2-0.2-1.6-0.6
		c-0.4-0.4-0.6-1-0.6-1.9c0-0.5,0-0.9,0-1.3c0-0.4,0-0.7,0-1.1c0-0.3,0-0.6,0-1c0-0.3,0-0.7,0-1.1c0.1,0,0.3,0,0.5,0
		c0.2,0,0.4,0,0.6,0c0.2,0,0.4,0,0.6,0c0.2,0,0.3,0,0.5,0c-0.1,0.5-0.1,1.1-0.1,1.7c0,0.7,0,1.4,0,2.3c0,0.6,0.1,1,0.3,1.3
		c0.2,0.3,0.5,0.4,0.8,0.4c0.4,0,0.7-0.2,0.9-0.5c0.2-0.4,0.3-0.9,0.3-1.5v-0.6c0-0.6,0-1.1,0-1.6c0-0.5,0-1-0.1-1.5
		c0.3,0,0.6,0.1,1,0.1c0.2,0,0.4,0,0.6,0c0.2,0,0.3,0,0.5,0c0,0.5-0.1,1-0.1,1.5c0,0.5,0,1,0,1.6v0.6c0,0.6,0,1.1,0,1.6
		c0,0.5,0,1,0.1,1.5c-0.2,0-0.3,0-0.5,0c-0.2,0-0.3,0-0.5,0c-0.2,0-0.3,0-0.5,0s-0.3,0-0.5,0L115.5,30.6L115.5,30.6z"/>
	<path class="st0" d="M120.8,29.3c0.1,0.3,0.2,0.6,0.3,0.8c0.2,0.2,0.3,0.4,0.6,0.6c0.2,0.1,0.5,0.2,0.8,0.2c0.6,0,1.2-0.2,1.7-0.6
		l0.2,0.1l-0.3,0.8c-0.2,0.2-0.5,0.3-0.8,0.4c-0.3,0.1-0.8,0.2-1.3,0.2c-0.5,0-0.9-0.1-1.3-0.2c-0.4-0.1-0.8-0.3-1.1-0.6
		c-0.3-0.3-0.6-0.7-0.7-1.1c-0.2-0.4-0.3-1-0.3-1.6c0-0.6,0.1-1.1,0.2-1.6c0.2-0.4,0.4-0.8,0.7-1.1c0.3-0.3,0.6-0.5,1-0.7
		c0.4-0.1,0.8-0.2,1.3-0.2c0.9,0,1.6,0.3,2.1,0.8c0.5,0.5,0.7,1.3,0.7,2.3v0.3c0,0.1,0,0.1,0,0.2h-4C120.7,28.6,120.7,29,120.8,29.3
		z M122.6,25.9c-0.2-0.4-0.4-0.6-0.8-0.6c-0.2,0-0.4,0.1-0.5,0.2c-0.1,0.1-0.3,0.3-0.3,0.5c-0.1,0.2-0.1,0.5-0.2,0.7
		c0,0.3-0.1,0.5-0.1,0.8h2.2C122.8,26.9,122.7,26.3,122.6,25.9z M122,22.2c0.3-0.4,0.5-0.6,0.7-0.8c0.2-0.2,0.3-0.3,0.4-0.3
		c0.1,0,0.2-0.1,0.3-0.1c0.2,0,0.4,0.1,0.5,0.2c0.1,0.1,0.2,0.3,0.2,0.4c0,0.1,0,0.2-0.1,0.3c0,0.1-0.1,0.2-0.3,0.3
		c-0.2,0.1-0.4,0.3-0.8,0.5c-0.3,0.2-0.8,0.5-1.4,0.9h-0.8C121.2,23.1,121.6,22.6,122,22.2z"/>
	<path class="st0" d="M125.9,23.4c0-0.8,0-1.5-0.1-2.3c0.1,0,0.3,0,0.5,0c0.2,0,0.4,0,0.6,0c0.2,0,0.4,0,0.6,0c0.2,0,0.3,0,0.5,0
		c0,0.8-0.1,1.6-0.1,2.3c0,0.8,0,1.6,0,2.5h0c0.2-0.4,0.4-0.7,0.7-0.9c0.3-0.2,0.7-0.3,1.1-0.3c0.4,0,0.8,0.1,1.1,0.3
		c0.3,0.2,0.6,0.4,0.9,0.7c0.2,0.3,0.4,0.6,0.6,1.1c0.1,0.4,0.2,0.8,0.2,1.3c0,0.7-0.1,1.3-0.3,1.8c-0.2,0.5-0.4,0.9-0.7,1.2
		c-0.3,0.3-0.6,0.5-1,0.6c-0.4,0.1-0.7,0.2-1.1,0.2c-0.4,0-0.8-0.1-1.1-0.3c-0.3-0.2-0.6-0.4-0.8-0.7c-0.2,0.1-0.4,0.2-0.6,0.4
		c-0.2,0.1-0.4,0.3-0.6,0.4h-0.3c0-0.8,0.1-1.6,0.1-2.3c0-0.8,0-1.6,0-2.5v-0.9C125.9,25,125.9,24.1,125.9,23.4z M127.8,29.4
		c0,0.4,0.1,0.7,0.2,0.9c0.1,0.3,0.2,0.5,0.4,0.6c0.2,0.1,0.4,0.2,0.6,0.2c0.4,0,0.7-0.2,1-0.7c0.2-0.5,0.4-1.3,0.4-2.5
		c0-1.6-0.4-2.4-1.2-2.4c-0.2,0-0.4,0-0.5,0.1c-0.2,0.1-0.3,0.2-0.4,0.5c-0.1,0.2-0.2,0.5-0.3,0.9c-0.1,0.3-0.1,0.8-0.1,1.3
		C127.8,28.7,127.8,29.1,127.8,29.4z"/>
	<path class="st0" d="M135.4,29.3c0.1,0.3,0.2,0.6,0.3,0.8c0.2,0.2,0.3,0.4,0.6,0.6c0.2,0.1,0.5,0.2,0.8,0.2c0.6,0,1.2-0.2,1.7-0.6
		l0.2,0.1l-0.3,0.8c-0.2,0.2-0.5,0.3-0.8,0.4c-0.3,0.1-0.8,0.2-1.3,0.2c-0.5,0-0.9-0.1-1.3-0.2c-0.4-0.1-0.8-0.3-1.1-0.6
		c-0.3-0.3-0.6-0.7-0.7-1.1c-0.2-0.4-0.3-1-0.3-1.6c0-0.6,0.1-1.1,0.2-1.6c0.2-0.4,0.4-0.8,0.7-1.1c0.3-0.3,0.6-0.5,1-0.7
		c0.4-0.1,0.8-0.2,1.3-0.2c0.9,0,1.6,0.3,2.1,0.8c0.5,0.5,0.7,1.3,0.7,2.3v0.3c0,0.1,0,0.1,0,0.2h-4C135.3,28.6,135.3,29,135.4,29.3
		z M137.2,25.9c-0.2-0.4-0.4-0.6-0.8-0.6c-0.2,0-0.4,0.1-0.5,0.2c-0.1,0.1-0.3,0.3-0.3,0.5c-0.1,0.2-0.1,0.5-0.2,0.7
		c0,0.3-0.1,0.5-0.1,0.8h2.2C137.4,26.9,137.3,26.3,137.2,25.9z"/>
	<path class="st0" d="M145.1,25.8c-0.2-0.3-0.5-0.4-1-0.4c-0.6,0-1,0.3-1.3,0.8c-0.3,0.5-0.4,1.2-0.4,2.1c0,0.8,0.2,1.5,0.5,1.9
		c0.4,0.5,0.9,0.7,1.6,0.7c0.3,0,0.6-0.1,0.8-0.2c0.3-0.1,0.5-0.3,0.6-0.5l0.2,0.1c-0.1,0.1-0.1,0.3-0.2,0.4c0,0.1-0.1,0.3-0.1,0.4
		c-0.2,0.2-0.5,0.3-0.8,0.4c-0.3,0.1-0.7,0.2-1.1,0.2c-0.7,0-1.3-0.1-1.7-0.3c-0.5-0.2-0.8-0.5-1.1-0.8c-0.3-0.3-0.5-0.7-0.6-1.1
		c-0.1-0.4-0.2-0.8-0.2-1.3c0-0.5,0.1-1,0.3-1.4c0.2-0.4,0.4-0.8,0.7-1.1c0.3-0.3,0.7-0.6,1.2-0.7c0.5-0.2,1-0.3,1.5-0.3
		c0.5,0,1,0.1,1.3,0.2c0.4,0.1,0.7,0.3,1.1,0.5c-0.1,0.2-0.2,0.4-0.3,0.7c-0.1,0.3-0.2,0.5-0.2,0.8h-0.3
		C145.4,26.4,145.3,26,145.1,25.8z"/>
</g>
</svg>
